<svg width="18" height="18" viewBox="0 0 18 18" fill="none" xmlns="http://www.w3.org/2000/svg">
<path d="M7.1025 11.46C6.96 11.46 6.8175 11.4075 6.705 11.295C6.09 10.68 5.7525 9.8625 5.7525 9C5.7525 7.2075 7.2075 5.7525 9 5.7525C9.8625 5.7525 10.68 6.09 11.295 6.705C11.4 6.81 11.46 6.9525 11.46 7.1025C11.46 7.2525 11.4 7.395 11.295 7.5L7.5 11.295C7.3875 11.4075 7.245 11.46 7.1025 11.46ZM9 6.8775C7.83 6.8775 6.8775 7.83 6.8775 9C6.8775 9.375 6.975 9.735 7.155 10.05L10.05 7.155C9.735 6.975 9.375 6.8775 9 6.8775Z" fill="#F9F9F9"/>
<path d="M4.2 13.8825C4.0725 13.8825 3.9375 13.8375 3.8325 13.7475C3.03 13.065 2.31 12.225 1.695 11.25C0.900005 10.0125 0.900005 7.995 1.695 6.75C3.525 3.885 6.1875 2.235 9 2.235C10.65 2.235 12.2775 2.805 13.7025 3.8775C13.95 4.065 14.0025 4.4175 13.815 4.665C13.6275 4.9125 13.275 4.965 13.0275 4.7775C11.7975 3.8475 10.4025 3.36 9 3.36C6.5775 3.36 4.26 4.815 2.64 7.3575C2.0775 8.235 2.0775 9.765 2.64 10.6425C3.2025 11.52 3.8475 12.2775 4.56 12.8925C4.7925 13.095 4.8225 13.4475 4.62 13.6875C4.515 13.815 4.3575 13.8825 4.2 13.8825Z" fill="#F9F9F9"/>
<path d="M8.99999 15.765C8.00249 15.765 7.02749 15.5625 6.08999 15.165C5.80499 15.045 5.66999 14.715 5.78999 14.43C5.90999 14.145 6.23999 14.01 6.52499 14.13C7.31999 14.4675 8.15249 14.64 8.99249 14.64C11.415 14.64 13.7325 13.185 15.3525 10.6425C15.915 9.765 15.915 8.235 15.3525 7.3575C15.12 6.99 14.865 6.6375 14.595 6.3075C14.4 6.0675 14.4375 5.715 14.6775 5.5125C14.9175 5.3175 15.27 5.3475 15.4725 5.595C15.765 5.955 16.05 6.345 16.305 6.75C17.1 7.9875 17.1 10.005 16.305 11.25C14.475 14.115 11.8125 15.765 8.99999 15.765Z" fill="#F9F9F9"/>
<path d="M9.5175 12.2025C9.255 12.2025 9.015 12.015 8.9625 11.745C8.9025 11.4375 9.105 11.145 9.4125 11.0925C10.2375 10.9425 10.9275 10.2525 11.0775 9.4275C11.1375 9.12 11.43 8.925 11.7375 8.9775C12.045 9.0375 12.2475 9.33 12.1875 9.6375C11.9475 10.935 10.9125 11.9625 9.6225 12.2025C9.585 12.195 9.555 12.2025 9.5175 12.2025Z" fill="#F9F9F9"/>
<path d="M1.50002 17.0625C1.35752 17.0625 1.21502 17.01 1.10252 16.8975C0.885017 16.68 0.885017 16.32 1.10252 16.1025L6.70502 10.5C6.92252 10.2825 7.28252 10.2825 7.50002 10.5C7.71752 10.7175 7.71752 11.0775 7.50002 11.295L1.89752 16.8975C1.78502 17.01 1.64252 17.0625 1.50002 17.0625Z" fill="#F9F9F9"/>
<path d="M10.8975 7.665C10.755 7.665 10.6125 7.6125 10.5 7.5C10.2825 7.2825 10.2825 6.9225 10.5 6.705L16.1025 1.1025C16.32 0.885002 16.68 0.885002 16.8975 1.1025C17.115 1.32 17.115 1.68 16.8975 1.8975L11.295 7.5C11.1825 7.6125 11.04 7.665 10.8975 7.665Z" fill="#F9F9F9"/>
</svg>
